<svg width="1109" height="1332" viewBox="0 0 1109 1332" fill="none" xmlns="http://www.w3.org/2000/svg">
<rect width="1109" height="1332" fill="#1C2C33"/>
<rect x="183" width="2" height="1332" fill="white" fill-opacity="0.01"/>
<rect x="267" width="2" height="1332" fill="white" fill-opacity="0.01"/>
<rect x="351" width="2" height="1332" fill="white" fill-opacity="0.01"/>
<rect x="435" width="2" height="1332" fill="white" fill-opacity="0.01"/>
<rect x="519" width="2" height="1332" fill="white" fill-opacity="0.01"/>
<rect x="603" width="2" height="1332" fill="white" fill-opacity="0.01"/>
<rect x="687" width="2" height="1332" fill="white" fill-opacity="0.01"/>
<rect x="771" width="2" height="1332" fill="white" fill-opacity="0.01"/>
<rect x="855" width="2" height="1332" fill="white" fill-opacity="0.01"/>
<rect x="939" width="2" height="1332" fill="white" fill-opacity="0.01"/>
<rect x="1023" width="2" height="1332" fill="white" fill-opacity="0.01"/>
<rect x="1109" y="84" width="2.00004" height="1109" transform="rotate(90 1109 84)" fill="white" fill-opacity="0.01"/>
<rect x="1109" y="169" width="2.00004" height="1109" transform="rotate(90 1109 169)" fill="white" fill-opacity="0.01"/>
<rect x="1109" y="254" width="2.00004" height="1109" transform="rotate(90 1109 254)" fill="white" fill-opacity="0.01"/>
<rect x="1109" y="339" width="2.00004" height="1109" transform="rotate(90 1109 339)" fill="white" fill-opacity="0.01"/>
<rect x="1109" y="424" width="2.00004" height="1109" transform="rotate(90 1109 424)" fill="white" fill-opacity="0.01"/>
<rect x="1109" y="509" width="2.00004" height="1109" transform="rotate(90 1109 509)" fill="white" fill-opacity="0.01"/>
<rect x="1109" y="594" width="2.00004" height="1109" transform="rotate(90 1109 594)" fill="white" fill-opacity="0.01"/>
<rect x="1109" y="679" width="2.00004" height="1109" transform="rotate(90 1109 679)" fill="white" fill-opacity="0.01"/>
<rect x="1109" y="764" width="2.00004" height="1109" transform="rotate(90 1109 764)" fill="white" fill-opacity="0.01"/>
<rect x="1109" y="849" width="2.00004" height="1109" transform="rotate(90 1109 849)" fill="white" fill-opacity="0.01"/>
<rect x="1109" y="934" width="2.00004" height="1109" transform="rotate(90 1109 934)" fill="white" fill-opacity="0.01"/>
<rect x="1109" y="1019" width="2.00004" height="1109" transform="rotate(90 1109 1019)" fill="white" fill-opacity="0.01"/>
<rect x="1109" y="1104" width="2.00004" height="1109" transform="rotate(90 1109 1104)" fill="white" fill-opacity="0.01"/>
<rect x="1109" y="1189" width="2.00004" height="1109" transform="rotate(90 1109 1189)" fill="white" fill-opacity="0.01"/>
<rect x="1109" y="1274" width="2.00004" height="1109" transform="rotate(90 1109 1274)" fill="white" fill-opacity="0.01"/>
</svg>
