<svg width="20" height="20" viewBox="0 0 20 20" fill="none" xmlns="http://www.w3.org/2000/svg">
<path d="M7.99959 7.99951V17.7044C7.99905 18.3134 7.75675 18.8973 7.32594 19.3277C6.89513 19.7581 6.31106 19.9999 5.70208 19.9999H0.573872C0.421673 19.9999 0.275711 19.9394 0.16809 19.8318C0.0604681 19.7242 9.02832e-07 19.5782 9.02832e-07 19.426V10.297C-0.00026676 9.99523 0.0589835 9.69636 0.17435 9.41749C0.289716 9.13862 0.458934 8.88524 0.672331 8.67184C0.885728 8.45845 1.13911 8.28923 1.41798 8.17386C1.69685 8.0585 1.99573 7.99924 2.29752 7.99951H7.99959Z" fill="#03363D"/>
<path d="M19.9979 0.573871V13.7017C19.9979 14.3106 19.7561 14.8947 19.3257 15.3255C18.8953 15.7563 18.3114 15.9986 17.7024 15.9992H12.5722C12.4198 15.9986 12.2738 15.9377 12.1663 15.8298C12.0587 15.7218 11.9983 15.5756 11.9983 15.4233V8.57346C11.9983 8.49809 11.9835 8.42347 11.9546 8.35385C11.9258 8.28422 11.8835 8.22096 11.8302 8.16767C11.7769 8.11438 11.7137 8.07211 11.644 8.04327C11.5744 8.01443 11.4998 7.99958 11.4244 7.99958H7.99952V2.30158C7.99872 1.99962 8.0575 1.70048 8.1725 1.42127C8.2875 1.14207 8.45645 0.888293 8.66969 0.674491C8.88292 0.460689 9.13625 0.291058 9.41515 0.175318C9.69405 0.0595773 9.99304 -1.06792e-06 10.295 0H19.424C19.5762 0 19.7222 0.0604672 19.8298 0.168089C19.9374 0.27571 19.9979 0.421672 19.9979 0.573871Z" fill="white"/>
</svg>
