<svg width="1759" height="1332" viewBox="0 0 1759 1332" fill="none" xmlns="http://www.w3.org/2000/svg">
<g opacity="0.5">
<rect x="2" width="1757" height="1332" fill="white"/>
<rect x="413" width="2" height="1332" fill="#EEEDE9" fill-opacity="0.8"/>
<rect x="329" width="2" height="1332" fill="#EEEDE9" fill-opacity="0.8"/>
<rect x="245" width="2" height="1332" fill="#EEEDE9" fill-opacity="0.8"/>
<rect x="161" width="2" height="1332" fill="#EEEDE9" fill-opacity="0.8"/>
<rect x="77" width="2" height="1332" fill="#EEEDE9" fill-opacity="0.8"/>
<rect width="2" height="1332" fill="#EEEDE9" fill-opacity="0.8"/>
<rect x="497" width="2" height="1332" fill="#EEEDE9" fill-opacity="0.8"/>
<rect x="581" width="2" height="1332" fill="#EEEDE9" fill-opacity="0.8"/>
<rect x="665" width="2" height="1332" fill="#EEEDE9" fill-opacity="0.8"/>
<rect x="749" width="2" height="1332" fill="#EEEDE9" fill-opacity="0.8"/>
<rect x="833" width="2" height="1332" fill="#EEEDE9" fill-opacity="0.8"/>
<rect x="917" width="2" height="1332" fill="#EEEDE9" fill-opacity="0.8"/>
<rect x="1001" width="2" height="1332" fill="#EEEDE9" fill-opacity="0.8"/>
<rect x="1085" width="2" height="1332" fill="#EEEDE9" fill-opacity="0.8"/>
<rect x="1169" width="2" height="1332" fill="#EEEDE9" fill-opacity="0.8"/>
<rect x="1253" width="2" height="1332" fill="#EEEDE9" fill-opacity="0.8"/>
<rect x="1337" width="2" height="1332" fill="#EEEDE9" fill-opacity="0.8"/>
<rect x="1421" width="2" height="1332" fill="#EEEDE9" fill-opacity="0.8"/>
<rect x="1505" width="2" height="1332" fill="#EEEDE9" fill-opacity="0.8"/>
<rect x="1589" width="2" height="1332" fill="#EEEDE9" fill-opacity="0.8"/>
<rect x="1673" width="2" height="1332" fill="#EEEDE9" fill-opacity="0.8"/>
<rect x="1759" y="84" width="2.00006" height="1759" transform="rotate(90 1759 84)" fill="#EEEDE9" fill-opacity="0.8"/>
<rect x="1759" y="169" width="2.00006" height="1759" transform="rotate(90 1759 169)" fill="#EEEDE9" fill-opacity="0.8"/>
<rect x="1759" y="254" width="2.00006" height="1759" transform="rotate(90 1759 254)" fill="#EEEDE9" fill-opacity="0.8"/>
<rect x="1759" y="339" width="2.00006" height="1759" transform="rotate(90 1759 339)" fill="#EEEDE9" fill-opacity="0.8"/>
<rect x="1759" y="424" width="2.00006" height="1759" transform="rotate(90 1759 424)" fill="#EEEDE9" fill-opacity="0.8"/>
<rect x="1759" y="509" width="2.00006" height="1759" transform="rotate(90 1759 509)" fill="#EEEDE9" fill-opacity="0.8"/>
<rect x="1759" y="594" width="2.00006" height="1759" transform="rotate(90 1759 594)" fill="#EEEDE9" fill-opacity="0.8"/>
<rect x="1759" y="679" width="2.00006" height="1759" transform="rotate(90 1759 679)" fill="#EEEDE9" fill-opacity="0.8"/>
<rect x="1759" y="764" width="2.00006" height="1759" transform="rotate(90 1759 764)" fill="#EEEDE9" fill-opacity="0.8"/>
<rect x="1759" y="849" width="2.00006" height="1759" transform="rotate(90 1759 849)" fill="#EEEDE9" fill-opacity="0.8"/>
<rect x="1759" y="934" width="2.00006" height="1759" transform="rotate(90 1759 934)" fill="#EEEDE9" fill-opacity="0.8"/>
<rect x="1759" y="1019" width="2.00006" height="1759" transform="rotate(90 1759 1019)" fill="#EEEDE9" fill-opacity="0.8"/>
<rect x="1759" y="1104" width="2.00006" height="1759" transform="rotate(90 1759 1104)" fill="#EEEDE9" fill-opacity="0.8"/>
<rect x="1759" y="1189" width="2.00006" height="1759" transform="rotate(90 1759 1189)" fill="#EEEDE9" fill-opacity="0.8"/>
<rect x="1759" y="1274" width="2.00006" height="1759" transform="rotate(90 1759 1274)" fill="#EEEDE9" fill-opacity="0.8"/>
</g>
</svg>
