<svg width="24" height="24" viewBox="0 0 24 24" fill="none" xmlns="http://www.w3.org/2000/svg">
<path d="M15.6094 5.50978V15.6698C15.6094 16.0698 15.4894 16.4598 15.2694 16.7898L12.5394 20.8498C12.1094 21.4998 11.0394 21.9598 10.1294 21.6198C9.14938 21.2898 8.49938 20.1898 8.70938 19.2098L9.22937 15.9398C9.26937 15.6398 9.18938 15.3698 9.01938 15.1598C8.84938 14.9698 8.59938 14.8498 8.32938 14.8498H4.21937C3.42937 14.8498 2.74938 14.5298 2.34938 13.9698C1.96938 13.4298 1.89937 12.7298 2.14937 12.0198L4.60938 4.52978C4.91938 3.28978 6.26938 2.27978 7.60938 2.27978H11.5094C12.1794 2.27978 13.1194 2.50978 13.5494 2.93978L14.8294 3.92978C15.3194 4.29978 15.6094 4.88978 15.6094 5.50978Z" fill="white"/>
<path d="M18.79 17.6201H19.82C21.37 17.6201 22 17.0201 22 15.5401V5.48012C22 4.00012 21.37 3.40012 19.82 3.40012H18.79C17.24 3.40012 16.61 4.00012 16.61 5.48012V15.5401C16.61 17.0201 17.24 17.6201 18.79 17.6201Z" fill="white"/>
</svg>
