<svg width="20" height="20" viewBox="0 0 20 20" fill="none" xmlns="http://www.w3.org/2000/svg">
<path d="M12.8069 4.94484V12.8471C12.8069 13.1582 12.7136 13.4615 12.5425 13.7182L10.4191 16.876C10.0847 17.3815 9.25248 17.7393 8.5447 17.4748C7.78248 17.2182 7.27692 16.3626 7.44026 15.6004L7.8447 13.0571C7.87581 12.8237 7.81359 12.6137 7.68137 12.4504C7.54914 12.3026 7.3547 12.2093 7.1447 12.2093H3.94803C3.33359 12.2093 2.8047 11.9604 2.49359 11.5248C2.19803 11.1048 2.14359 10.5604 2.33803 10.0082L4.25137 4.18262C4.49248 3.21817 5.54248 2.43262 6.5847 2.43262H9.61803C10.1391 2.43262 10.8703 2.61151 11.2047 2.94595L12.2003 3.71595C12.5814 4.01151 12.8069 4.46262 12.8069 4.94484Z" fill="white"/>
<path d="M15.2805 14.3637H16.0816C17.2872 14.3637 17.7772 13.8971 17.7772 12.746V4.9293C17.7772 3.77819 17.2872 3.31152 16.0816 3.31152H15.2805C14.075 3.31152 13.585 3.77819 13.585 4.9293V12.7537C13.585 13.8971 14.075 14.3637 15.2805 14.3637Z" fill="white"/>
</svg>
