<svg width="17" height="17" viewBox="0 0 17 17" fill="none" xmlns="http://www.w3.org/2000/svg">
<path d="M8.3336 1.13916C2.93816 1.13916 1.13916 2.93816 1.13916 8.3336C1.13916 13.729 2.93816 15.528 8.3336 15.528C13.729 15.528 15.528 13.729 15.528 8.3336" stroke="white" stroke-width="1.5" stroke-linecap="round" stroke-linejoin="round"/>
<path fill-rule="evenodd" clip-rule="evenodd" d="M14.189 2.34776V2.34776C13.4166 1.6641 12.2367 1.73565 11.5531 2.50798C11.5531 2.50798 8.15496 6.34632 6.97663 7.67865C5.79674 9.01021 6.66163 10.8497 6.66163 10.8497C6.66163 10.8497 8.60918 11.4664 9.77118 10.1535C10.934 8.84065 14.3492 4.98365 14.3492 4.98365C15.0329 4.21132 14.9605 3.03143 14.189 2.34776Z" stroke="white" stroke-width="1.5" stroke-linecap="round" stroke-linejoin="round"/>
<path d="M10.6738 3.51172L13.4699 5.98739" stroke="white" stroke-width="1.5" stroke-linecap="round" stroke-linejoin="round"/>
</svg>
