<svg width="40" height="40" viewBox="0 0 40 40" fill="none" xmlns="http://www.w3.org/2000/svg">
<rect width="40" height="40" rx="20" fill="#FE6A57"/>
<path d="M17.9996 17.9995V27.7044C17.999 28.3134 17.7567 28.8973 17.3259 29.3277C16.8951 29.7581 16.3111 29.9999 15.7021 29.9999H10.5739C10.4217 29.9999 10.2757 29.9394 10.1681 29.8318C10.0605 29.7242 10 29.5782 10 29.426V20.297C9.99973 19.9952 10.059 19.6964 10.1743 19.4175C10.2897 19.1386 10.4589 18.8852 10.6723 18.6718C10.8857 18.4584 11.1391 18.2892 11.418 18.1739C11.6968 18.0585 11.9957 17.9992 12.2975 17.9995H17.9996Z" fill="#03363D"/>
<path d="M29.9984 10.5739V23.7017C29.9984 24.3106 29.7566 24.8947 29.3262 25.3255C28.8957 25.7563 28.3119 25.9986 27.7029 25.9992H22.5727C22.4203 25.9986 22.2743 25.9377 22.1667 25.8298C22.0592 25.7218 21.9988 25.5756 21.9988 25.4233V18.5735C21.9988 18.4981 21.9839 18.4235 21.9551 18.3538C21.9263 18.2842 21.884 18.221 21.8307 18.1677C21.7774 18.1144 21.7142 18.0721 21.6445 18.0433C21.5749 18.0144 21.5003 17.9996 21.4249 17.9996H18V12.3016C17.9992 11.9996 18.058 11.7005 18.173 11.4213C18.288 11.1421 18.4569 10.8883 18.6702 10.6745C18.8834 10.4607 19.1367 10.2911 19.4156 10.1753C19.6945 10.0596 19.9935 10 20.2955 10H29.4245C29.5767 10 29.7227 10.0605 29.8303 10.1681C29.9379 10.2757 29.9984 10.4217 29.9984 10.5739Z" fill="white"/>
</svg>
