<svg width="1008" height="1332" viewBox="0 0 1008 1332" fill="none" xmlns="http://www.w3.org/2000/svg">
<g opacity="0.5">
<rect width="1008" height="1332" fill="#EEEDE9"/>
<rect x="82" width="2" height="1332" fill="white"/>
<rect x="166" width="2" height="1332" fill="white"/>
<rect x="250" width="2" height="1332" fill="white"/>
<rect x="334" width="2" height="1332" fill="white"/>
<rect x="418" width="2" height="1332" fill="white"/>
<rect x="502" width="2" height="1332" fill="white"/>
<rect x="586" width="2" height="1332" fill="white"/>
<rect x="670" width="2" height="1332" fill="white"/>
<rect x="754" width="2" height="1332" fill="white"/>
<rect x="838" width="2" height="1332" fill="white"/>
<rect x="922" width="2" height="1332" fill="white"/>
<rect x="1008" y="84" width="2" height="1008" transform="rotate(90 1008 84)" fill="white"/>
<rect x="1008" y="169" width="2" height="1008" transform="rotate(90 1008 169)" fill="white"/>
<rect x="1008" y="254" width="2" height="1008" transform="rotate(90 1008 254)" fill="white"/>
<rect x="1008" y="339" width="2" height="1008" transform="rotate(90 1008 339)" fill="white"/>
<rect x="1008" y="424" width="2" height="1008" transform="rotate(90 1008 424)" fill="white"/>
<rect x="1008" y="509" width="2" height="1008" transform="rotate(90 1008 509)" fill="white"/>
<rect x="1008" y="594" width="2" height="1008" transform="rotate(90 1008 594)" fill="white"/>
<rect x="1008" y="679" width="2" height="1008" transform="rotate(90 1008 679)" fill="white"/>
<rect x="1008" y="764" width="2" height="1008" transform="rotate(90 1008 764)" fill="white"/>
<rect x="1008" y="849" width="2" height="1008" transform="rotate(90 1008 849)" fill="white"/>
<rect x="1008" y="934" width="2" height="1008" transform="rotate(90 1008 934)" fill="white"/>
<rect x="1008" y="1019" width="2" height="1008" transform="rotate(90 1008 1019)" fill="white"/>
<rect x="1008" y="1104" width="2" height="1008" transform="rotate(90 1008 1104)" fill="white"/>
<rect x="1008" y="1189" width="2" height="1008" transform="rotate(90 1008 1189)" fill="white"/>
<rect x="1008" y="1274" width="2" height="1008" transform="rotate(90 1008 1274)" fill="white"/>
</g>
</svg>
