<svg width="20" height="20" viewBox="0 0 20 20" fill="none" xmlns="http://www.w3.org/2000/svg">
<path d="M7.19141 15.0482V7.146C7.19141 6.83489 7.28474 6.53155 7.45585 6.27489L9.57918 3.11711C9.91363 2.61155 10.7459 2.25378 11.4536 2.51822C12.2159 2.77489 12.7214 3.63044 12.5581 4.39266L12.1536 6.936C12.1225 7.16933 12.1847 7.37933 12.317 7.54266C12.4492 7.69044 12.6436 7.78377 12.8536 7.78377H16.0503C16.6647 7.78377 17.1936 8.03266 17.5047 8.46822C17.8003 8.88822 17.8547 9.43266 17.6603 9.98489L15.747 15.8104C15.5059 16.7749 14.4559 17.5604 13.4136 17.5604H10.3803C9.85918 17.5604 9.12807 17.3816 8.79363 17.0471L7.79807 16.2771C7.41696 15.9893 7.19141 15.5304 7.19141 15.0482Z" fill="#03363D"/>
<path d="M4.71835 5.62939H3.91724C2.71168 5.62939 2.22168 6.09606 2.22168 7.24717V15.0716C2.22168 16.2227 2.71168 16.6894 3.91724 16.6894H4.71835C5.9239 16.6894 6.4139 16.2227 6.4139 15.0716V7.24717C6.4139 6.09606 5.9239 5.62939 4.71835 5.62939Z" fill="#03363D"/>
</svg>
