<svg width="247" height="48" viewBox="0 0 247 48" fill="none" xmlns="http://www.w3.org/2000/svg">
<path d="M64.1426 37.8803V35.4774L67.2488 34.9401V13.0745L64.1426 12.5372V10.0952H76.8996C78.6471 10.0454 80.3825 10.4015 81.9692 11.1355C83.3032 11.7744 84.418 12.7941 85.1731 14.0659C85.9311 15.3939 86.3127 16.9035 86.2769 18.4322C86.3166 19.9706 85.9349 21.4906 85.1731 22.8278C84.4172 24.0918 83.3017 25.1018 81.9692 25.7289C80.3801 26.4549 78.646 26.8074 76.8996 26.7594H71.0095V34.9548L74.1206 35.492V37.895L64.1426 37.8803ZM70.9802 23.8046H76.8752C78.7571 23.8046 80.1637 23.2999 81.095 22.2906C82.0433 21.2476 82.5463 19.8752 82.4967 18.4664C82.5419 17.051 82.0399 15.6726 81.095 14.6178C80.1605 13.5889 78.7539 13.0745 76.8752 13.0745H71.0095L70.9802 23.8046ZM97.6566 37.8803C95.917 37.9267 94.2024 37.4577 92.7286 36.5323C91.3331 35.6212 90.2254 34.3322 89.5345 32.8156C88.7584 31.1138 88.3746 29.2595 88.4112 27.3895V26.9743C88.3746 25.1043 88.7584 23.25 89.5345 21.5482C90.2259 20.0293 91.3333 18.7373 92.7286 17.8217C94.1861 16.8951 95.886 16.4225 97.6126 16.464C99.3535 16.4185 101.069 16.891 102.541 17.8217C103.934 18.7346 105.042 20.0231 105.735 21.5384C106.514 23.2428 106.899 25.1007 106.863 26.9743V27.3895C106.899 29.2662 106.513 31.1271 105.735 32.8351C105.045 34.3469 103.941 35.6322 102.55 36.5421C101.093 37.4548 99.4001 37.92 97.681 37.8803H97.6566ZM97.6566 34.9499C98.7416 34.9881 99.8053 34.6422 100.66 33.9731C101.505 33.2625 102.139 32.3333 102.492 31.2869C102.922 30.0383 103.132 28.7245 103.112 27.4041V26.989C103.134 25.6604 102.925 24.3381 102.492 23.0818C102.138 22.0337 101.5 21.104 100.65 20.3956C99.7843 19.7263 98.7115 19.3807 97.6175 19.4188C96.5298 19.3829 95.4638 19.7284 94.6041 20.3956C93.7559 21.1024 93.123 22.0331 92.7775 23.0818C92.3481 24.3387 92.1415 25.661 92.167 26.989V27.4041C92.1443 28.7239 92.3509 30.0377 92.7775 31.2869C93.1238 32.3377 93.7605 33.269 94.6139 33.9731C95.4918 34.644 96.577 34.9861 97.681 34.9401L97.6566 34.9499ZM116.323 37.8803L110.887 19.9365L108.582 19.6679V17.2503H117.105V19.6679L114.57 20.0879L117.407 30.3443L118.057 32.7863H118.174L119.009 30.3443L123.493 17.2308H126.687L130.956 30.3101L131.874 33.2063H131.986L132.885 30.3101L135.762 20.0537L133.168 19.6532V17.2356H141.5V19.6532L139.215 19.9804L133.876 37.8657H130.311L126.135 25.4701L125.158 22.1538H125.041L124.064 25.4505L119.586 37.8461L116.323 37.8803ZM152.777 37.8803C151.028 37.9206 149.303 37.4669 147.801 36.5714C146.386 35.6983 145.252 34.437 144.533 32.9377C143.735 31.2614 143.34 29.4215 143.381 27.5653V26.7252C143.359 24.9059 143.782 23.1088 144.611 21.4896C145.359 20.0173 146.468 18.7588 147.835 17.8315C149.13 16.9477 150.663 16.4776 152.23 16.4835C153.86 16.4266 155.473 16.824 156.89 17.6312C158.14 18.3878 159.129 19.5093 159.722 20.8449C160.392 22.3842 160.717 24.051 160.675 25.7289V28.0732H147.293L147.234 28.1709C147.236 29.3773 147.473 30.5718 147.932 31.6874C148.325 32.6536 148.982 33.4898 149.827 34.1001C150.701 34.6992 151.743 35.0053 152.802 34.9743C153.941 34.9965 155.074 34.8128 156.147 34.4322C157.065 34.0974 157.911 33.5901 158.638 32.9377L160.103 35.3797C159.252 36.1643 158.257 36.7764 157.173 37.1819C155.774 37.6902 154.29 37.9272 152.802 37.8803H152.777ZM147.381 25.1038H156.895V24.6154C156.912 23.7026 156.734 22.7967 156.372 21.9585C156.043 21.2023 155.499 20.5588 154.809 20.1074C154.026 19.6339 153.121 19.3997 152.206 19.4334C151.385 19.427 150.584 19.6838 149.92 20.166C149.204 20.6865 148.622 21.3694 148.221 22.1587C147.759 23.0504 147.463 24.0184 147.346 25.0158L147.381 25.1038ZM163.532 37.8803V35.4774L166.638 34.9401V20.2051L163.532 19.6679V17.2503H169.994L170.321 19.8779L170.355 20.2393C170.877 19.2573 171.619 18.4097 172.523 17.7631C173.383 17.1657 174.407 16.8516 175.454 16.8645C175.86 16.8674 176.265 16.9033 176.665 16.9719C176.965 17.0147 177.26 17.0817 177.549 17.1721L177.061 20.6593L174.448 20.5079C173.559 20.415 172.667 20.6571 171.947 21.1868C171.254 21.7265 170.715 22.439 170.384 23.2527V34.9401L173.495 35.4774V37.8803H163.532ZM192.836 37.8803C191.071 37.91 189.324 37.5235 187.737 36.7521C186.275 36.0374 185.046 34.9232 184.191 33.5384C183.293 32.028 182.843 30.2936 182.892 28.5372V13.0745L179.786 12.5372V10.0952H189.759V12.5372L186.648 13.0745V28.5372C186.608 29.7483 186.88 30.9493 187.439 32.0244C187.94 32.9401 188.709 33.6812 189.642 34.1489C190.657 34.6443 191.775 34.8904 192.904 34.8669C194.047 34.8904 195.179 34.648 196.211 34.1587C197.16 33.7011 197.946 32.9629 198.462 32.0439C199.034 30.9658 199.314 29.7568 199.273 28.5372V13.0745L196.162 12.5372V10.0952H206.135V12.5372L203.029 13.0745V28.5372C203.085 30.3215 202.646 32.0865 201.759 33.6361C200.918 35.0238 199.679 36.1265 198.203 36.8009C196.524 37.5507 194.699 37.9193 192.86 37.8803H192.836ZM217.661 37.8803L211.18 12.8254L208.836 12.5372V10.0952H217.832V12.5372L214.956 12.9768L218.575 28.2491L219.415 31.8144H219.532L220.636 28.2491L226.223 10.0952H229.52L235.166 28.2491L236.25 32.0244H236.367L237.344 28.2491L240.929 12.9573L237.818 12.5177V10.0757H246.667V12.5177L244.475 12.8058L238.257 37.8608H234.692L228.665 18.6373L227.903 15.8388H227.791L227.048 18.6373L221.002 37.8608L217.661 37.8803Z" fill="white"/>
<path d="M19.199 19.1992V42.491C19.1977 43.9526 18.6162 45.3538 17.5823 46.3869C16.5483 47.4199 15.1465 48.0002 13.685 48.0002H1.37729C1.01201 48.0002 0.661707 47.8551 0.403415 47.5968C0.145123 47.3385 2.1668e-06 46.9882 2.1668e-06 46.6229V24.7132C-0.000640223 23.989 0.14156 23.2717 0.418439 22.6024C0.695318 21.9331 1.10144 21.325 1.61359 20.8128C2.12575 20.3007 2.73387 19.8945 3.40315 19.6177C4.07244 19.3408 4.78976 19.1986 5.51406 19.1992H19.199Z" fill="white"/>
<path d="M47.9953 1.37729V32.884C47.9953 34.3456 47.415 35.7473 46.382 36.7813C45.349 37.8152 43.9477 38.3967 42.4861 38.398H30.1736C29.8079 38.3967 29.4575 38.2505 29.1994 37.9915C28.9412 37.7324 28.7963 37.3816 28.7963 37.0158V20.5763C28.7963 20.3954 28.7607 20.2163 28.6915 20.0492C28.6223 19.8821 28.5208 19.7303 28.3929 19.6024C28.265 19.4745 28.1132 19.3731 27.9461 19.3038C27.779 19.2346 27.5999 19.199 27.419 19.199H19.1992V5.5238C19.1973 4.7991 19.3384 4.08114 19.6144 3.41105C19.8904 2.74096 20.2959 2.1319 20.8076 1.61878C21.3194 1.10565 21.9274 0.698539 22.5968 0.420762C23.2661 0.142986 23.9837 -2.56302e-06 24.7084 0H46.618C46.9833 0 47.3336 0.145121 47.5919 0.403413C47.8502 0.661705 47.9953 1.01201 47.9953 1.37729Z" fill="#FF3621"/>
</svg>
