<svg width="18" height="18" viewBox="0 0 18 18" fill="none" xmlns="http://www.w3.org/2000/svg">
<path d="M9 11.625C10.6575 11.625 12 10.2825 12 8.625V4.5C12 2.8425 10.6575 1.5 9 1.5C7.3425 1.5 6 2.8425 6 4.5V8.625C6 10.2825 7.3425 11.625 9 11.625Z" stroke="#03363D" stroke-linecap="round" stroke-linejoin="round"/>
<path d="M3.26172 7.23755V8.51255C3.26172 11.6775 5.83422 14.25 8.99922 14.25C12.1642 14.25 14.7367 11.6775 14.7367 8.51255V7.23755" stroke="#03363D" stroke-linecap="round" stroke-linejoin="round"/>
<path d="M7.95703 4.82259C8.63203 4.57509 9.36703 4.57509 10.042 4.82259" stroke="#03363D" stroke-linecap="round" stroke-linejoin="round"/>
<path d="M8.40039 6.41249C8.79789 6.30749 9.21039 6.30749 9.60789 6.41249" stroke="#03363D" stroke-linecap="round" stroke-linejoin="round"/>
<path d="M9 14.25V16.5" stroke="#03363D" stroke-linecap="round" stroke-linejoin="round"/>
</svg>
