<svg width="12" height="12" viewBox="0 0 12 12" fill="none" xmlns="http://www.w3.org/2000/svg">
<path d="M9.65499 6.5977H9.55501L9.55499 6.69768C9.55483 7.43651 9.3245 8.15693 8.896 8.75881C8.46751 9.36068 7.86215 9.81411 7.16407 10.0561C6.46598 10.298 5.70986 10.3165 5.0008 10.1089C4.29175 9.90126 3.66498 9.4779 3.20764 8.89765C2.75029 8.31739 2.48508 7.60907 2.44888 6.87113C2.41268 6.13319 2.60727 5.40231 3.00562 4.78007C3.40398 4.15783 3.98629 3.67516 4.67162 3.39914C5.30072 3.14577 5.98795 3.07809 6.65218 3.20209L5.60591 4.24837L5.5352 4.31908L5.60591 4.38979L6.06159 4.84548L6.1323 4.91619L6.20302 4.84548L8.0904 2.9581L8.16105 2.88745L8.09046 2.81673L6.20631 0.92935L6.13585 0.858768L6.06508 0.92904L5.60616 1.38473L5.53471 1.45567L5.60614 1.52663L6.3941 2.30947C5.60007 2.23804 4.79949 2.38352 4.07886 2.73307C3.26928 3.12576 2.5995 3.75713 2.15974 4.54213C1.71999 5.32714 1.53138 6.22806 1.61932 7.12354C1.70727 8.01902 2.06754 8.86603 2.65161 9.55049C3.23569 10.2349 4.0155 10.7239 4.886 10.9516C5.75651 11.1793 6.67588 11.1348 7.52028 10.8239C8.36467 10.5131 9.09353 9.95096 9.60866 9.21323C10.1238 8.47549 10.4004 7.59759 10.4014 6.6978L10.4015 6.5977H10.3014H9.65499Z" fill="#03363D" stroke="#03363D" stroke-width="0.2"/>
</svg>
