<svg width="10" height="12" viewBox="0 0 10 12" fill="none" xmlns="http://www.w3.org/2000/svg">
<path d="M8.65499 6.5977H8.55501L8.55499 6.69768C8.55483 7.43651 8.3245 8.15693 7.896 8.75881C7.46751 9.36068 6.86215 9.81411 6.16407 10.0561C5.46598 10.298 4.70986 10.3165 4.0008 10.1089C3.29175 9.90126 2.66498 9.4779 2.20764 8.89765C1.75029 8.31739 1.48508 7.60907 1.44888 6.87113C1.41268 6.13319 1.60727 5.40231 2.00562 4.78007C2.40398 4.15783 2.98629 3.67516 3.67162 3.39914C4.30072 3.14577 4.98795 3.07809 5.65218 3.20209L4.60591 4.24837L4.5352 4.31908L4.60591 4.38979L5.06159 4.84548L5.1323 4.91619L5.20302 4.84548L7.0904 2.9581L7.16105 2.88745L7.09046 2.81673L5.20631 0.92935L5.13585 0.858768L5.06508 0.92904L4.60616 1.38473L4.53471 1.45567L4.60614 1.52663L5.3941 2.30947C4.60007 2.23804 3.79949 2.38352 3.07886 2.73307C2.26928 3.12576 1.5995 3.75713 1.15974 4.54213C0.719986 5.32714 0.531375 6.22806 0.61932 7.12354C0.707265 8.01902 1.06754 8.86603 1.65161 9.55049C2.23569 10.2349 3.0155 10.7239 3.886 10.9516C4.75651 11.1793 5.67588 11.1348 6.52028 10.8239C7.36467 10.5131 8.09353 9.95096 8.60866 9.21323C9.12379 8.47549 9.40044 7.59759 9.40136 6.6978L9.40146 6.5977H9.30136H8.65499Z" fill="white" stroke="white" stroke-width="0.2"/>
</svg>
