<svg width="22" height="22" viewBox="0 0 22 22" fill="none" xmlns="http://www.w3.org/2000/svg">
<path fill-rule="evenodd" clip-rule="evenodd" d="M9.88636 0.5H12.1136C13.3437 0.5 14.3409 1.4402 14.3409 2.6C14.3409 3.92722 15.761 4.77103 16.9267 4.13647L17.0451 4.07203C18.1104 3.49213 19.4725 3.83627 20.0876 4.84068L21.2012 6.65933C21.8163 7.66375 21.4513 8.94809 20.386 9.52799C19.2197 10.1628 19.2197 11.8372 20.386 12.472C21.4513 13.0519 21.8163 14.3363 21.2012 15.3407L20.0876 17.1593C19.4725 18.1637 18.1104 18.5079 17.0451 17.928L16.9267 17.8635C15.761 17.229 14.3409 18.0728 14.3409 19.4C14.3409 20.5598 13.3437 21.5 12.1136 21.5H9.88636C8.65627 21.5 7.65908 20.5598 7.65908 19.4C7.65908 18.0728 6.23903 17.229 5.07333 17.8635L4.95493 17.928C3.88964 18.5079 2.52746 18.1637 1.91241 17.1593L0.798771 15.3407C0.183724 14.3363 0.54872 13.0519 1.61401 12.472C2.78026 11.8372 2.78026 10.1628 1.61401 9.52797C0.548722 8.94807 0.183726 7.66373 0.798772 6.65932L1.91241 4.84067C2.52746 3.83625 3.88964 3.49211 4.95493 4.07201L5.07333 4.13646C6.23903 4.77102 7.65908 3.92721 7.65908 2.6C7.65908 1.4402 8.65627 0.5 9.88636 0.5ZM11 14.5C12.933 14.5 14.5 12.933 14.5 11C14.5 9.067 12.933 7.5 11 7.5C9.06701 7.5 7.50001 9.067 7.50001 11C7.50001 12.933 9.06701 14.5 11 14.5Z" fill="white"/>
</svg>
