<svg width="28" height="28" viewBox="0 0 28 28" fill="none" xmlns="http://www.w3.org/2000/svg">
<g clip-path="url(#clip0_326_17006)">
<g filter="url(#filter0_d_326_17006)">
<path d="M24.2012 18.3407L23.5616 17.949V17.949L24.2012 18.3407ZM23.0876 20.1593L23.7272 20.551H23.7272L23.0876 20.1593ZM3.79877 9.65932L3.15916 9.26766H3.15916L3.79877 9.65932ZM4.91241 7.84067L5.55202 8.23233V8.23233L4.91241 7.84067ZM7.95493 7.07201L8.31352 6.41329L8.31352 6.41329L7.95493 7.07201ZM4.61401 12.528L4.25543 13.1867H4.25543L4.61401 12.528ZM20.0451 20.928L19.6865 21.5867L19.6865 21.5867L20.0451 20.928ZM23.386 15.472L23.0274 16.1307V16.1307L23.386 15.472ZM4.91241 20.1593L4.2728 20.551H4.2728L4.91241 20.1593ZM3.79877 18.3407L4.43838 17.949H4.43838L3.79877 18.3407ZM23.0876 7.84068L23.7272 7.44902L23.7272 7.44902L23.0876 7.84068ZM24.2012 9.65933L23.5616 10.051V10.051L24.2012 9.65933ZM23.386 12.528L23.7446 13.1867L23.386 12.528ZM20.0451 7.07203L20.4036 7.73075L20.0451 7.07203ZM4.61401 15.472L4.97259 16.1308H4.97259L4.61401 15.472ZM7.95493 20.928L7.59636 20.2693L7.59635 20.2693L7.95493 20.928ZM19.9267 7.13647L19.5681 6.47775V6.47775L19.9267 7.13647ZM8.07333 7.13646L7.71475 7.79519L7.71475 7.79519L8.07333 7.13646ZM19.9267 20.8635L20.2853 20.2048L20.2853 20.2048L19.9267 20.8635ZM8.07333 20.8635L8.43191 21.5223L8.43191 21.5223L8.07333 20.8635ZM12.8864 4.25H15.1136V2.75H12.8864V4.25ZM15.1136 23.75H12.8864V25.25H15.1136V23.75ZM12.8864 23.75C12.0283 23.75 11.4091 23.1046 11.4091 22.4H9.90908C9.90908 24.015 11.2842 25.25 12.8864 25.25V23.75ZM16.5909 22.4C16.5909 23.1046 15.9717 23.75 15.1136 23.75V25.25C16.7158 25.25 18.0909 24.015 18.0909 22.4H16.5909ZM15.1136 4.25C15.9717 4.25 16.5909 4.89538 16.5909 5.6H18.0909C18.0909 3.98502 16.7158 2.75 15.1136 2.75V4.25ZM12.8864 2.75C11.2842 2.75 9.90908 3.98502 9.90908 5.6H11.4091C11.4091 4.89538 12.0283 4.25 12.8864 4.25V2.75ZM23.5616 17.949L22.448 19.7677L23.7272 20.551L24.8408 18.7323L23.5616 17.949ZM4.43838 10.051L5.55202 8.23233L4.2728 7.449L3.15916 9.26766L4.43838 10.051ZM5.55202 8.23233C5.94853 7.58481 6.86478 7.3325 7.59635 7.73074L8.31352 6.41329C6.9145 5.65172 5.10639 6.08769 4.2728 7.449L5.55202 8.23233ZM4.9726 11.8692C4.26442 11.4837 4.05912 10.6703 4.43838 10.051L3.15916 9.26766C2.30834 10.6571 2.83302 12.4124 4.25543 13.1867L4.9726 11.8692ZM22.448 19.7677C22.0515 20.4152 21.1352 20.6675 20.4036 20.2692L19.6865 21.5867C21.0855 22.3483 22.8936 21.9123 23.7272 20.551L22.448 19.7677ZM24.8408 18.7323C25.6917 17.3429 25.167 15.5876 23.7446 14.8133L23.0274 16.1307C23.7356 16.5162 23.9409 17.3296 23.5616 17.949L24.8408 18.7323ZM5.55202 19.7677L4.43838 17.949L3.15916 18.7323L4.2728 20.551L5.55202 19.7677ZM22.448 8.23234L23.5616 10.051L24.8408 9.26767L23.7272 7.44902L22.448 8.23234ZM23.5616 10.051C23.9409 10.6704 23.7356 11.4838 23.0274 11.8693L23.7446 13.1867C25.167 12.4124 25.6917 10.6571 24.8408 9.26767L23.5616 10.051ZM20.4036 7.73075C21.1352 7.33252 22.0515 7.58482 22.448 8.23234L23.7272 7.44902C22.8936 6.08771 21.0855 5.65174 19.6865 6.4133L20.4036 7.73075ZM4.43838 17.949C4.05911 17.3296 4.26442 16.5163 4.97259 16.1308L4.25543 14.8133C2.83302 15.5876 2.30833 17.3429 3.15916 18.7323L4.43838 17.949ZM4.2728 20.551C5.10639 21.9123 6.9145 22.3483 8.31352 21.5867L7.59635 20.2693C6.86478 20.6675 5.94852 20.4152 5.55202 19.7677L4.2728 20.551ZM20.2853 7.7952L20.4036 7.73075L19.6865 6.4133L19.5681 6.47775L20.2853 7.7952ZM7.59635 7.73074L7.71475 7.79519L8.43192 6.47774L8.31352 6.41329L7.59635 7.73074ZM20.4037 20.2692L20.2853 20.2048L19.5681 21.5223L19.6865 21.5867L20.4037 20.2692ZM7.71475 20.2048L7.59636 20.2693L8.31351 21.5867L8.43191 21.5223L7.71475 20.2048ZM4.25543 13.1867C4.89979 13.5375 4.89979 14.4625 4.25543 14.8133L4.97259 16.1308C6.66073 15.2118 6.66074 12.7882 4.9726 11.8692L4.25543 13.1867ZM8.43191 21.5223C9.09784 21.1598 9.90908 21.6418 9.90908 22.4H11.4091C11.4091 20.5038 9.38021 19.2982 7.71475 20.2048L8.43191 21.5223ZM18.0909 22.4C18.0909 21.6418 18.9022 21.1597 19.5681 21.5223L20.2853 20.2048C18.6198 19.2982 16.5909 20.5038 16.5909 22.4H18.0909ZM23.7446 14.8133C23.1002 14.4625 23.1002 13.5375 23.7446 13.1867L23.0274 11.8693C21.3393 12.7882 21.3393 15.2118 23.0274 16.1307L23.7446 14.8133ZM7.71475 7.79519C9.38021 8.70179 11.4091 7.49623 11.4091 5.6H9.90908C9.90908 6.3582 9.09784 6.84024 8.43192 6.47774L7.71475 7.79519ZM19.5681 6.47775C18.9022 6.84025 18.0909 6.35821 18.0909 5.6H16.5909C16.5909 7.49623 18.6198 8.70181 20.2853 7.7952L19.5681 6.47775ZM16.75 14C16.75 15.5188 15.5188 16.75 14 16.75V18.25C16.3472 18.25 18.25 16.3472 18.25 14H16.75ZM14 16.75C12.4812 16.75 11.25 15.5188 11.25 14H9.75001C9.75001 16.3472 11.6528 18.25 14 18.25V16.75ZM11.25 14C11.25 12.4812 12.4812 11.25 14 11.25V9.75C11.6528 9.75 9.75001 11.6528 9.75001 14H11.25ZM14 11.25C15.5188 11.25 16.75 12.4812 16.75 14H18.25C18.25 11.6528 16.3472 9.75 14 9.75V11.25Z" fill="#03363D"/>
</g>
</g>
<defs>
<filter id="filter0_d_326_17006" x="-1.25" y="2.75" width="30.5" height="30.5" filterUnits="userSpaceOnUse" color-interpolation-filters="sRGB">
<feFlood flood-opacity="0" result="BackgroundImageFix"/>
<feColorMatrix in="SourceAlpha" type="matrix" values="0 0 0 0 0 0 0 0 0 0 0 0 0 0 0 0 0 0 127 0" result="hardAlpha"/>
<feOffset dy="4"/>
<feGaussianBlur stdDeviation="2"/>
<feComposite in2="hardAlpha" operator="out"/>
<feColorMatrix type="matrix" values="0 0 0 0 0 0 0 0 0 0 0 0 0 0 0 0 0 0 0.25 0"/>
<feBlend mode="normal" in2="BackgroundImageFix" result="effect1_dropShadow_326_17006"/>
<feBlend mode="normal" in="SourceGraphic" in2="effect1_dropShadow_326_17006" result="shape"/>
</filter>
<clipPath id="clip0_326_17006">
<rect width="28" height="28" fill="white"/>
</clipPath>
</defs>
</svg>
