<svg width="18" height="16" viewBox="0 0 18 16" fill="none" xmlns="http://www.w3.org/2000/svg">
<path d="M14.2193 15.5767C14.2193 13.9027 15.576 12.5459 17.2501 12.5459C15.576 12.5459 14.2193 11.1891 14.2193 9.51508C14.2193 11.1891 12.8625 12.5459 11.1885 12.5459C12.8625 12.5459 14.2193 13.9027 14.2193 15.5767Z" stroke="white" stroke-width="0.8" stroke-miterlimit="10" stroke-linecap="round" stroke-linejoin="round"/>
<path d="M1.20703 2.44334C2.32303 2.44334 3.22756 1.53882 3.22756 0.422816C3.22756 1.53882 4.13208 2.44334 5.24808 2.44334C4.13208 2.44334 3.22756 3.34786 3.22756 4.46387C3.22756 3.34786 2.32303 2.44334 1.20703 2.44334Z" stroke="white" stroke-width="0.7" stroke-miterlimit="10" stroke-linecap="round" stroke-linejoin="round"/>
<path d="M9.74007 9.61621C9.55425 9.61621 9.40332 9.46528 9.40332 9.27946C9.40332 9.09364 9.55425 8.9427 9.74007 8.9427C9.9259 8.9427 10.0768 9.09364 10.0768 9.27946C10.0768 9.46528 9.9259 9.61621 9.74007 9.61621Z" fill="white"/>
<path d="M8.80008 10.4673C8.26333 11.3719 7.95513 12.4281 7.95513 13.5562C7.95513 10.2085 5.24123 7.49458 1.89355 7.49458C5.24123 7.49458 7.95513 4.78067 7.95513 1.433C7.95513 4.78067 10.669 7.49458 14.0167 7.49458C12.8886 7.49458 11.8325 7.80274 10.9279 8.33949" stroke="white" stroke-width="1.2" stroke-miterlimit="10" stroke-linecap="round" stroke-linejoin="round"/>
</svg>
