<svg width="18" height="18" viewBox="0 0 18 18" fill="none" xmlns="http://www.w3.org/2000/svg">
<mask id="mask0_521_24639" style="mask-type:luminance" maskUnits="userSpaceOnUse" x="0" y="0" width="18" height="18">
<path d="M0 -1.90735e-06H18V18H0V-1.90735e-06Z" fill="white"/>
</mask>
<g mask="url(#mask0_521_24639)">
<path d="M14.2193 16.5767C14.2193 14.9027 15.576 13.5459 17.2501 13.5459C15.576 13.5459 14.2193 12.1891 14.2193 10.5151C14.2193 12.1891 12.8625 13.5459 11.1885 13.5459C12.8625 13.5459 14.2193 14.9027 14.2193 16.5767Z" stroke="#03363D" stroke-width="0.8" stroke-miterlimit="10" stroke-linecap="round" stroke-linejoin="round"/>
<path d="M1.20703 3.44334C2.32303 3.44334 3.22756 2.53882 3.22756 1.42282C3.22756 2.53882 4.13208 3.44334 5.24808 3.44334C4.13208 3.44334 3.22756 4.34786 3.22756 5.46387C3.22756 4.34786 2.32303 3.44334 1.20703 3.44334Z" stroke="#03363D" stroke-width="0.7" stroke-miterlimit="10" stroke-linecap="round" stroke-linejoin="round"/>
<path d="M9.74056 10.6162C9.55474 10.6162 9.40381 10.4653 9.40381 10.2795C9.40381 10.0936 9.55474 9.9427 9.74056 9.9427C9.92638 9.9427 10.0773 10.0936 10.0773 10.2795C10.0773 10.4653 9.92638 10.6162 9.74056 10.6162Z" fill="#03363D"/>
<path d="M8.80057 11.4673C8.26382 12.3719 7.95562 13.4281 7.95562 14.5562C7.95562 11.2085 5.24172 8.49458 1.89404 8.49458C5.24172 8.49458 7.95562 5.78067 7.95562 2.433C7.95562 5.78067 10.6695 8.49458 14.0172 8.49458C12.8891 8.49458 11.833 8.80274 10.9284 9.33949" stroke="#03363D" stroke-width="1.2" stroke-miterlimit="10" stroke-linecap="round" stroke-linejoin="round"/>
</g>
</svg>
