<svg width="13" height="14" viewBox="0 0 13 14" fill="none" xmlns="http://www.w3.org/2000/svg">
<path d="M0.678571 7.52857C0.970479 7.52857 1.20714 7.29191 1.20714 7C1.20714 4.21948 3.46948 1.95714 6.25 1.95714C7.64496 1.95714 8.93445 2.5129 9.86769 3.47143H8.39286C8.10095 3.47143 7.86429 3.70809 7.86429 4C7.86429 4.29191 8.10095 4.52857 8.39286 4.52857H10.9643C11.2562 4.52857 11.4929 4.29191 11.4929 4V1.42857C11.4929 1.13666 11.2562 0.9 10.9643 0.9C10.6724 0.9 10.4357 1.13666 10.4357 1.42857V2.55068C9.32312 1.50331 7.8428 0.9 6.25 0.9C2.88631 0.9 0.15 3.63631 0.15 7C0.15 7.29191 0.386664 7.52857 0.678571 7.52857ZM11.8214 6.47143C11.5295 6.47143 11.2929 6.70809 11.2929 7C11.2929 9.78052 9.03052 12.0429 6.25 12.0429C4.85504 12.0429 3.56555 11.4871 2.63231 10.5286H4.10714C4.39905 10.5286 4.63571 10.2919 4.63571 10C4.63571 9.70809 4.39905 9.47143 4.10714 9.47143H1.53571C1.24381 9.47143 1.00714 9.70809 1.00714 10V12.5714C1.00714 12.8633 1.24381 13.1 1.53571 13.1C1.82762 13.1 2.06429 12.8633 2.06429 12.5714V11.4493C3.17688 12.4967 4.6572 13.1 6.25 13.1C9.61369 13.1 12.35 10.3637 12.35 7C12.35 6.70809 12.1133 6.47143 11.8214 6.47143Z" fill="white" stroke="white" stroke-width="0.2"/>
</svg>
