<svg width="19" height="18" viewBox="0 0 19 18" fill="none" xmlns="http://www.w3.org/2000/svg">
<path d="M3.67857 9.52857C3.97048 9.52857 4.20714 9.29191 4.20714 9C4.20714 6.21948 6.46948 3.95714 9.25 3.95714C10.645 3.95714 11.9345 4.5129 12.8677 5.47143H11.3929C11.1009 5.47143 10.8643 5.70809 10.8643 6C10.8643 6.29191 11.1009 6.52857 11.3929 6.52857H13.9643C14.2562 6.52857 14.4929 6.29191 14.4929 6V3.42857C14.4929 3.13666 14.2562 2.9 13.9643 2.9C13.6724 2.9 13.4357 3.13666 13.4357 3.42857V4.55068C12.3231 3.50331 10.8428 2.9 9.25 2.9C5.88631 2.9 3.15 5.63631 3.15 9C3.15 9.29191 3.38666 9.52857 3.67857 9.52857ZM14.8214 8.47143C14.5295 8.47143 14.2929 8.70809 14.2929 9C14.2929 11.7805 12.0305 14.0429 9.25 14.0429C7.85504 14.0429 6.56555 13.4871 5.63231 12.5286H7.10714C7.39905 12.5286 7.63571 12.2919 7.63571 12C7.63571 11.7081 7.39905 11.4714 7.10714 11.4714H4.53571C4.24381 11.4714 4.00714 11.7081 4.00714 12V14.5714C4.00714 14.8633 4.24381 15.1 4.53571 15.1C4.82762 15.1 5.06429 14.8633 5.06429 14.5714V13.4493C6.17688 14.4967 7.6572 15.1 9.25 15.1C12.6137 15.1 15.35 12.3637 15.35 9C15.35 8.70809 15.1133 8.47143 14.8214 8.47143Z" fill="#03363D" stroke="#03363D" stroke-width="0.2"/>
</svg>
