<svg width="132" height="132" viewBox="0 0 132 132" fill="none" xmlns="http://www.w3.org/2000/svg">
<path d="M46.9062 82L47.1523 79.3633C47.4336 76.8086 47.9141 74.4121 48.5938 72.1738C49.2852 69.9355 50.1816 67.8145 51.2832 65.8105C52.3965 63.8066 53.7266 61.9023 55.2734 60.0977H45.9043L45.6934 62.7168H41.9668V56.4062H59.8789V60.0977C58.4727 61.75 57.3066 63.3203 56.3809 64.8086C55.4551 66.2852 54.7051 67.7676 54.1309 69.2559C53.5566 70.7441 53.0996 72.3086 52.7598 73.9492C52.4316 75.5781 52.1562 77.3828 51.9336 79.3633L51.6875 82H46.9062ZM70.0742 82.3691C68.5508 82.3691 67.1562 82.0879 65.8906 81.5254C64.625 80.9512 63.623 80.1309 62.8848 79.0645C62.1465 77.9863 61.7949 76.6973 61.8301 75.1973L61.8652 75.1094L66.418 74.916C66.418 76.0996 66.7578 77.0254 67.4375 77.6934C68.1172 78.3613 68.9961 78.6953 70.0742 78.6953C71.3281 78.6953 72.2656 78.25 72.8867 77.3594C73.5195 76.457 73.8359 75.2852 73.8359 73.8438C73.8359 72.332 73.5078 71.1133 72.8516 70.1875C72.207 69.2617 71.252 68.7988 69.9863 68.7988C68.9316 68.7988 68.1348 68.9863 67.5957 69.3613C67.0566 69.7246 66.6699 70.2402 66.4355 70.9082L62.2344 70.6094L63.7109 56.4062H78.1953V62.084H75.1543L74.7148 60.3086H67.666L66.9277 66.4785C67.2559 66.2324 67.6191 66.0215 68.0176 65.8457C68.4277 65.6582 68.873 65.5059 69.3535 65.3887C69.834 65.2715 70.3438 65.2129 70.8828 65.2129C72.5117 65.1895 73.9004 65.5176 75.0488 66.1973C76.209 66.877 77.0879 67.8672 77.6855 69.168C78.2949 70.457 78.5996 72.0039 78.5996 73.8086C78.5996 75.4609 78.2715 76.9316 77.6152 78.2207C76.959 79.5098 75.998 80.5234 74.7324 81.2617C73.4668 82 71.9141 82.3691 70.0742 82.3691ZM87.1953 80.084L84.8223 78.8008L97.3203 58.7969L99.6934 60.0801L87.1953 80.084ZM98.4805 82.3516C97.332 82.3516 96.3418 82.123 95.5098 81.666C94.6895 81.209 94.0566 80.582 93.6113 79.7852C93.166 78.9883 92.9434 78.0859 92.9434 77.0781V75.7246C92.9434 74.7285 93.1602 73.832 93.5938 73.0352C94.0391 72.2383 94.6719 71.6113 95.4922 71.1543C96.3242 70.6855 97.3086 70.4512 98.4453 70.4512C99.5938 70.4512 100.578 70.6797 101.398 71.1367C102.23 71.5938 102.863 72.2207 103.297 73.0176C103.742 73.8145 103.965 74.7168 103.965 75.7246V77.0781C103.965 78.0859 103.748 78.9883 103.314 79.7852C102.881 80.582 102.254 81.209 101.434 81.666C100.613 82.123 99.6289 82.3516 98.4805 82.3516ZM98.4805 79.6621C99.2656 79.6621 99.834 79.4219 100.186 78.9414C100.549 78.4609 100.73 77.8398 100.73 77.0781V75.7246C100.73 75.0098 100.531 74.4062 100.133 73.9141C99.7461 73.4102 99.1836 73.1582 98.4453 73.1582C97.707 73.1582 97.1445 73.4102 96.7578 73.9141C96.3711 74.4062 96.1777 75.0098 96.1777 75.7246V77.0781C96.1777 77.793 96.3887 78.4023 96.8105 78.9062C97.2324 79.4102 97.7891 79.6621 98.4805 79.6621ZM86.2109 67.9375C85.0625 67.9375 84.0723 67.709 83.2402 67.252C82.4199 66.7949 81.7871 66.1738 81.3418 65.3887C80.8965 64.5918 80.6738 63.6895 80.6738 62.6816V61.3281C80.6738 60.3203 80.8906 59.418 81.3242 58.6211C81.7695 57.8242 82.4023 57.1973 83.2227 56.7402C84.043 56.2715 85.0273 56.0371 86.1758 56.0371C87.3359 56.0371 88.3262 56.2715 89.1465 56.7402C89.9668 57.1973 90.5938 57.8242 91.0273 58.6211C91.4609 59.418 91.6777 60.3203 91.6777 61.3281V62.6816C91.6777 63.6895 91.4609 64.5918 91.0273 65.3887C90.5938 66.1738 89.9668 66.7949 89.1465 67.252C88.3379 67.709 87.3594 67.9375 86.2109 67.9375ZM86.2109 65.2305C86.9258 65.2305 87.4766 64.9844 87.8633 64.4922C88.2617 64 88.4609 63.3965 88.4609 62.6816V61.3281C88.4609 60.6133 88.2617 60.0039 87.8633 59.5C87.4648 58.9961 86.9023 58.7441 86.1758 58.7441C85.4375 58.7441 84.875 58.9961 84.4883 59.5C84.1016 60.0039 83.9082 60.6133 83.9082 61.3281V62.6816C83.9082 63.3965 84.1016 64 84.4883 64.4922C84.8867 64.9844 85.4609 65.2305 86.2109 65.2305Z" fill="#03363D"/>
<circle cx="66" cy="66" r="61" stroke="#F7F6F4" stroke-width="10"/>
<path d="M127 66C127 78.9051 122.907 91.4778 115.31 101.91C107.713 112.342 97.0031 120.096 84.7208 124.056C72.4384 128.017 59.2164 127.98 46.9562 123.951C34.6961 119.922 24.0296 112.109 16.4907 101.635C8.95186 91.1605 4.92909 78.5653 5.00095 65.6603C5.07281 52.7554 9.2356 40.2057 16.8906 29.8161C24.5457 19.4266 35.2986 11.7325 47.6028 7.84037C59.907 3.94826 73.1286 4.05869 85.3662 8.15579" stroke="#FE6A57" stroke-width="10" stroke-linecap="round"/>
</svg>
